{"title":"Rabbit Hole (2010) 720p BRrip x264 Junaid-Zia (PimpRG)","uid":8826204,"size":770744963,"categoryP":"video","categoryS":"hd___movies","magnet":"?xt=urn:btih:11a99c95319d6c8b33364f979fa857fecba541b2&amp;dn=Rabbit+Hole+%282010%29+720p+BRrip+x264+Junaid-Zia+%28PimpRG%29&amp;tr=udp%3A%2F%2Ftracker.openbittorrent.com%3A80&amp;tr=udp%3A%2F%2Fopen.demonii.com%3A1337&amp;tr=udp%3A%2F%2Ftracker.coppersurfer.tk%3A6969&amp;tr=udp%3A%2F%2Fexodus.desync.com%3A6969","seeders":1,"leechers":1,"uploader":"junaidzia","files":15,"time":1376854136,"description":" &lt;a href=&quot;http://imageshack.us/a/img407/9853/9e8n.jpg&quot; rel=&quot;nofollow&quot; target=&quot;_NEW&quot;&gt;http://imageshack.us/a/img407/9853/9e8n.jpg&lt;/a&gt;\n\n\nIMDB : \n\n         &lt;a href=&quot; http://www.imdb.com/title/tt0935075&quot; rel=&quot;nofollow&quot; target=&quot;_NEW&quot;&gt; http://www.imdb.com/title/tt0935075&lt;/a&gt;\n\n[b]General[/b]\nFormat                         : Matroska\nFormat version                 : Version 4 / Version 2\nFile size                      : 725 MiB\nDuration                       : 1h 31mn\n\n[b]Video[/b]\nID                             : 1\nFormat                         : AVC\nFormat/Info                    : Advanced Video Codec\nFormat profile                 : &lt;a class=&quot;__cf_email__&quot; href=&quot;/cdn-cgi/l/email-protection&quot; data-cfemail=&quot;6820010f0028245c4659&quot;&gt;[email&amp;#160;protected]&lt;/a&gt;&lt;script cf-hash='f9e31' type=&quot;text/javascript&quot;&gt;\n/* &lt;![CDATA[ */!function(){try{var t=&quot;currentScript&quot;in document?document.currentScript:function(){for(var t=document.getElementsByTagName(&quot;script&quot;),e=t.length;e--;)if(t[e].getAttribute(&quot;cf-hash&quot;))return t[e]}();if(t&amp;&amp;t.previousSibling){var e,r,n,i,c=t.previousSibling,a=c.getAttribute(&quot;data-cfemail&quot;);if(a){for(e=&quot;&quot;,r=parseInt(a.substr(0,2),16),n=2;a.length-n;n+=2)i=parseInt(a.substr(n,2),16)^r,e+=String.fromCharCode(i);e=document.createTextNode(e),c.parentNode.replaceChild(e,c)}}}catch(u){}}();/* ]]&gt; */&lt;/script&gt;\nFormat settings, CABAC         : Yes\nFormat settings, ReFrames      : 5 frames\nCodec ID                       : V_MPEG4/ISO/AVC\nDuration                       : 1h 31mn\nWidth                          : 1 280 pixels\nHeight                         : 720 pixels\nDisplay aspect ratio           : 16:9\nFrame rate mode                : Constant\nFrame rate                     : 23.976 fps\nColor space                    : YUV\nChroma subsampling             : 4:2:0\nBit depth                      : 8 bits\nScan type                      : Progressive\nBits/(Pixel*Frame)             : 0.039\nStream size                    : 543 MiB (75%)\nTitle                          : Encoder Junaid-Zia\nLanguage                       : English\nDefault                        : Yes\nForced                         : No\n\n[b]Audio[/b]\nID                             : 2\nFormat                         : AC-3\nFormat/Info                    : Audio Coding 3\nMode extension                 : CM (complete main)\nFormat settings, Endianness    : Big\nCodec ID                       : A_AC3\nDuration                       : 1h 31mn\nBit rate mode                  : Constant\nBit rate                       : 256 Kbps\nChannel(s)                     : 6 channels\nChannel positions              : Front: L C R, Side: L R, LFE\nSampling rate                  : 48.0 KHz\nBit depth                      : 16 bits\nCompression mode               : Lossy\nStream size                    : 167 MiB (23%)\nTitle                          : Encoder Junaid-Zia\nLanguage                       : English\nDefault                        : Yes\nForced                         : No\n\n[b]Text[/b]\nID                             : 3\nFormat                         : UTF-8\nCodec ID                       : S_TEXT/UTF8\nCodec ID/Info                  : UTF-8 Plain Text\nTitle                          : Soft Encoded\nLanguage                       : English\nDefault                        : Yes\nForced                         : No\n\n\nScreens :\n &lt;a href=&quot;\nhttp://www.piczhub.com/image1/2013/08/18/1.jpg&quot; rel=&quot;nofollow&quot; target=&quot;_NEW&quot;&gt;\nhttp://www.piczhub.com/image1/2013/08/18/1.jpg&lt;/a&gt;  &lt;a href=&quot;\nhttp://www.piczhub.com/image1/2013/08/18/2.jpg&quot; rel=&quot;nofollow&quot; target=&quot;_NEW&quot;&gt;\nhttp://www.piczhub.com/image1/2013/08/18/2.jpg&lt;/a&gt; &lt;a href=&quot;\nhttp://www.piczhub.com/image1/2013/08/18/3.jpg&quot; rel=&quot;nofollow&quot; target=&quot;_NEW&quot;&gt;\nhttp://www.piczhub.com/image1/2013/08/18/3.jpg&lt;/a&gt; &lt;a href=&quot;\nhttp://www.piczhub.com/image1/2013/08/18/4.jpg&quot; rel=&quot;nofollow&quot; target=&quot;_NEW&quot;&gt;\nhttp://www.piczhub.com/image1/2013/08/18/4.jpg&lt;/a&gt;  &lt;a href=&quot;\nhttp://www.piczhub.com/image1/2013/08/18/5.jpg&quot; rel=&quot;nofollow&quot; target=&quot;_NEW&quot;&gt;\nhttp://www.piczhub.com/image1/2013/08/18/5.jpg&lt;/a&gt;  &lt;a href=&quot;\nhttp://www.piczhub.com/image1/2013/08/18/6.jpg&quot; rel=&quot;nofollow&quot; target=&quot;_NEW&quot;&gt;\nhttp://www.piczhub.com/image1/2013/08/18/6.jpg&lt;/a&gt;  &lt;a href=&quot;\nhttp://www.piczhub.com/image1/2013/08/18/7.jpg&quot; rel=&quot;nofollow&quot; target=&quot;_NEW&quot;&gt;\nhttp://www.piczhub.com/image1/2013/08/18/7.jpg&lt;/a&gt; &lt;a href=&quot;\nhttp://www.piczhub.com/image1/2013/08/18/8.jpg&quot; rel=&quot;nofollow&quot; target=&quot;_NEW&quot;&gt;\nhttp://www.piczhub.com/image1/2013/08/18/8.jpg&lt;/a&gt;  &lt;a href=&quot;\nhttp://www.piczhub.com/image1/2013/08/18/9.jpg&quot; rel=&quot;nofollow&quot; target=&quot;_NEW&quot;&gt;\nhttp://www.piczhub.com/image1/2013/08/18/9.jpg&lt;/a&gt;  &lt;a href=&quot;\nhttp://www.piczhub.com/image1/2013/08/18/10.jpg&quot; rel=&quot;nofollow&quot; target=&quot;_NEW&quot;&gt;\nhttp://www.piczhub.com/image1/2013/08/18/10.jpg&lt;/a&gt;\n\n\n[b]Seed After Downloading, Remember Sharing is Caring.[/b]","torrent":{"xt":"urn:btih:11a99c95319d6c8b33364f979fa857fecba541b2","amp;dn":"Rabbit+Hole+%282010%29+720p+BRrip+x264+Junaid-Zia+%28PimpRG%29","amp;tr":["udp%3A%2F%2Ftracker.openbittorrent.com%3A80","udp%3A%2F%2Fopen.demonii.com%3A1337","udp%3A%2F%2Ftracker.coppersurfer.tk%3A6969","udp%3A%2F%2Fexodus.desync.com%3A6969"],"infoHash":"11a99c95319d6c8b33364f979fa857fecba541b2","infoHashBuffer":{"type":"Buffer","data":[17,169,156,149,49,157,108,139,51,54,79,151,159,168,87,254,203,165,65,178]},"announce":[],"urlList":[]}}